<svg width="100" height="100" viewBox="0 0 100 100" fill="none" xmlns="http://www.w3.org/2000/svg">
<rect width="100" height="100" rx="20" fill="#2A5BDE"/>
<path d="M18.1657 60.1783C18.0752 54.6021 18.8897 50.1176 20.6092 46.7248C22.3286 43.332 24.5609 40.863 27.306 39.3178C30.0813 37.7726 33.0074 37 36.0843 37C39.1612 37 41.9666 37.7558 44.5006 39.2674C47.0647 40.7455 49.9908 43.0801 53.2788 46.2713C55.5111 48.4212 57.2909 49.9328 58.6182 50.8062C59.9757 51.6796 61.4538 52.1163 63.0526 52.1163C65.6469 52.1163 67.6982 51.0749 69.2064 48.9922C70.7147 46.876 71.4387 43.8191 71.3784 39.8217H81.1521C81.2426 45.3979 80.4282 49.8824 78.7087 53.2752C77.0194 56.668 74.7871 59.137 72.0119 60.6822C69.2366 62.2274 66.3105 63 63.2336 63C60.1567 63 57.3512 62.261 54.8173 60.7829C52.2834 59.2713 49.3573 56.9199 46.039 53.7287C43.8369 51.5788 42.0571 50.0672 40.6997 49.1938C39.3422 48.3204 37.8641 47.8837 36.2653 47.8837C33.8218 47.8837 31.8007 48.8411 30.2019 50.7558C28.6333 52.6369 27.8791 55.7778 27.9395 60.1783H18.1657Z" fill="white"/>
</svg>
