<svg width="100" height="100" viewBox="0 0 100 100" fill="none" xmlns="http://www.w3.org/2000/svg">
<rect width="100" height="100" rx="20" fill="#2A5BDE"/>
<path d="M16.1657 58.1783C16.0752 52.6021 16.8897 48.1176 18.6092 44.7248C20.3286 41.332 22.5609 38.863 25.306 37.3178C28.0813 35.7726 31.0074 35 34.0843 35C37.1612 35 39.9666 35.7558 42.5006 37.2674C45.0647 38.7455 47.9908 41.0801 51.2788 44.2713C53.5111 46.4212 55.2909 47.9328 56.6182 48.8062C57.9757 49.6796 59.4538 50.1163 61.0526 50.1163C63.6469 50.1163 65.6981 49.0749 67.2064 46.9922C68.7147 44.876 69.4387 41.8191 69.3784 37.8217H79.1521C79.2426 43.3979 78.4282 47.8824 76.7087 51.2752C75.0194 54.668 72.7871 57.137 70.0119 58.6822C67.2366 60.2274 64.3105 61 61.2336 61C58.1567 61 55.3512 60.261 52.8173 58.7829C50.2834 57.2713 47.3573 54.9199 44.039 51.7287C41.8369 49.5788 40.0571 48.0672 38.6997 47.1938C37.3422 46.3204 35.8641 45.8837 34.2653 45.8837C31.8218 45.8837 29.8007 46.8411 28.2019 48.7558C26.6333 50.6369 25.8791 53.7778 25.9395 58.1783H16.1657Z" fill="white"/>
</svg>
